# xmcd
#
# Track frame offsets:
# 150
# 15382
# 33665
# 47650
# 62095
# 74500
# 90642
# 110637
# 125065
# 141132
# 155390
# 167962
# 187007
# 200770
#
# Disc length: 2925 seconds
#
#
# Revision: 0
# Processed by: cddbd v1.5.2PL0 Copyright (c) Steve Scherf et al.
# Submitted via: FreeRIP 2.96 
#
DISCID=d00b6b0e
DTITLE=Chitãozinho e Xororó - Festa do interior
DYEAR=1900
DGENRE=
TTITLE0=Festa do Interior
TTITLE1=Eu e o sabiá
TTITLE2=Á noite do nosso amor
TTITLE3=Uma vez por mês
TTITLE4=O futuro é uma incerteza
TTITLE5=Quem tem amor tem saudade
TTITLE6=Berrante de ouro
TTITLE7=Pedaço da minha vida
TTITLE8=Explode, Coração
TTITLE9=Viola
TTITLE10=Ela fez minha cabeça
TTITLE11=Estrada
TTITLE12=Rei do Gado
TTITLE13=Encontra casual
EXTD=
EXTT0=
EXTT1=
EXTT2=
EXTT3=
EXTT4=
EXTT5=
EXTT6=
EXTT7=
EXTT8=
EXTT9=
EXTT10=
EXTT11=
EXTT12=
EXTT13=
PLAYORDER=
